<?xml version="1.0" encoding="utf-8"?>
<!-- Generator: Adobe Illustrator 27.5.0, SVG Export Plug-In . SVG Version: 6.00 Build 0)  -->
<svg version="1.1" xmlns="http://www.w3.org/2000/svg" xmlns:xlink="http://www.w3.org/1999/xlink" x="0px" y="0px"
	 viewBox="0 0 1122 1122" style="enable-background:new 0 0 1122 1122;" xml:space="preserve">

<g id="stroke">
	<g id="XMLID_746_">
		<g id="XMLID_844_">
			<path id="XMLID_845_" d="M563.195,662.215c10.372,7.248,20.743,14.495,31.114,21.743c1.404,0.981,11.622,5.458,11.097,0.899
				c-1.716-14.914-3.433-29.829-5.149-44.743c9.696-5.782,19.392-11.565,29.089-17.347c10.512,7.346,21.024,14.691,31.535,22.037
				c1.684,1.177,12.539,2.598,12.092-1.285c-1.679-14.588-3.358-29.177-5.037-43.765c0.093-0.055,0.186-0.111,0.28-0.167
				c0.919-0.548,0.682-1.323,0.031-2.076c-0.006-0.01-0.006-0.017-0.012-0.028c-12.511-20.979-25.021-41.958-37.532-62.937
				c-1.715-2.876-8.516-4.938-11.435-3.197c-8.196,4.887-16.391,9.774-24.586,14.662c-5.736-59.173-22.624-117.005-52.807-168.343
				c2.512-1.303,4.986-2.678,7.276-4.311c1.125-0.802,0.046-2.679-1.091-1.867c-2.264,1.615-4.76,2.965-7.333,4.234
				c-1.322-2.216-2.659-4.425-4.032-6.616c-1.191-1.902-2.421-3.777-3.648-5.654c3.448-1.498,6.94-2.9,10.337-4.513
				c1.259-0.598,0.161-2.462-1.092-1.867c-3.428,1.628-6.929,3.074-10.4,4.591c-26.13-39.469-60.028-73.335-98.662-100.635
				c-28.343-20.028-59.316-36.559-91.793-48.813c-9.31-3.513-18.801-6.965-28.494-9.295c-2.648-0.636-10.234-0.631-10.773,3.156
				c-9.854,69.178-8.423,140.598,12.266,207.747c14.523,47.136,38.669,91.193,71.167,128.329
				c21.388,24.44,46.386,45.975,73.992,63.118c5.919,3.676,12.006,7.309,18.311,10.379c-12.051,7.187-24.103,14.374-36.154,21.561
				c-0.871,0.52-0.382,1.494-0.019,2.104c12.511,20.979,25.021,41.958,37.532,62.937c1.159,1.944,4.641,3.511,7.679,3.789
				c11.015,7.697,22.03,15.395,33.045,23.092c1.805,1.261,12.458,1.974,12.017-1.859c-1.667-14.491-3.335-28.982-5.003-43.472
				C539.067,676.604,551.131,669.409,563.195,662.215z M592.212,674.903c-3.712-2.594-7.424-5.188-11.136-7.782
				c2.529-1.11,5.126-2.03,7.896-2.398c1.361-0.181,1.379-2.346,0-2.162c-3.528,0.469-6.763,1.69-9.935,3.135
				c-1.292-0.903-2.583-1.805-3.875-2.708c1.095-1.816,5.529-2.712,7.044-3.138c2.55-0.717,5.165-1.215,7.775-1.653
				c0.119-0.02,0.205-0.07,0.296-0.115C590.921,663.689,591.566,669.296,592.212,674.903z M590.061,656.213
				c-0.191-0.089-0.404-0.143-0.656-0.101c-3.818,0.64-7.633,1.434-11.273,2.776c-1.667,0.614-3.609,1.46-4.653,2.925
				c-1.475-1.03-2.949-2.061-4.424-3.091c3.468-2.068,6.936-4.136,10.404-6.204c3.174-1.893,6.349-3.786,9.523-5.679
				C589.341,649.963,589.701,653.088,590.061,656.213z M658.78,632.905c-4.431-3.096-8.862-6.193-13.293-9.289
				c2.182-1.134,4.539-2.001,6.743-3.012c1.266-0.581,0.167-2.444-1.091-1.867c-2.522,1.157-5.198,2.135-7.62,3.503
				c-0.177-0.123-0.354-0.247-0.53-0.37c0.33-0.309,0.509-0.788,0.259-1.303c-1.208-2.488,9.923-5.639,11.608-6.341
				c1.268-0.528,0.712-2.621-0.575-2.085c-2.964,1.235-13.835,3.607-13.248,8.363c-1.211-0.846-2.422-1.693-3.633-2.539
				c6.133-3.657,12.266-7.315,18.399-10.972C656.792,615.63,657.786,624.268,658.78,632.905z M528.929,505.232
				c-0.796,1.172-1.639,2.307-2.5,3.428c-2.981-1.582-5.456-4.166-7.572-7.25c-0.011-0.017-0.021-0.034-0.033-0.051
				c1.858-1.275,3.964-2.143,6.28-2.468c1.376-0.193,0.789-2.277-0.575-2.085c-2.5,0.351-4.832,1.324-6.885,2.727
				c-1.208-1.968-2.288-4.02-3.383-6.046c-1.846-3.416-5.28-7.475-4.57-11.58c1.075-6.216,12.743-6.316,17.24-6.678
				c2.169-0.175,4.31-0.411,6.443-0.691c1.356,1.319,2.58,2.327,3.151,2.62c1.239,0.635,2.333-1.231,1.092-1.867
				c-0.561-0.288-1.09-0.686-1.595-1.133c1.945-0.3,3.889-0.634,5.839-1.037c0.401-0.083,0.809-0.172,1.215-0.259
				c1.547,2.012,3.107,4.014,4.594,6.072c0.808,1.119,2.685,0.041,1.867-1.091c-1.345-1.862-2.75-3.677-4.152-5.497
				c7.094-1.658,14.61-4.138,20.307-8.689c3.341,11.216,6.181,22.58,8.571,34.043c-4.985,2.669-11.262,3.541-16.405,5.462
				c-7.481,2.793-14.841,6.126-22.85,7.059c-2.41,0.281-4.576,0.011-6.543-0.671c0.801-1.055,1.584-2.125,2.33-3.223
				C531.582,505.166,529.707,504.086,528.929,505.232z M441.012,278.981c-10.348,9.206-21.723,17.415-33.066,25.269
				c-29.273,20.269-60.782,37.332-93.67,50.972c-0.841-5.437-1.559-10.888-2.188-16.349c2.036-1.288,5.265-2.469,6.216-2.901
				c5.127-2.33,10.437-4.273,15.73-6.188c8.615-3.117,17.419-5.732,25.998-8.939c1.294-0.483,0.734-2.574-0.575-2.085
				c-9.627,3.599-19.503,6.534-29.151,10.09c-5.382,1.984-10.77,4.049-15.917,6.59c-0.704,0.348-1.63,0.771-2.549,1.28
				c-0.547-4.968-1.012-9.943-1.391-14.926c0.345-0.104,0.683-0.211,1.007-0.326c3.493-1.238,6.99-2.462,10.505-3.637
				c7.033-2.35,14.176-4.39,21.492-5.636c1.373-0.234,0.789-2.318-0.575-2.085c-7.79,1.327-15.345,3.582-22.829,6.083
				c-3.266,1.091-6.51,2.245-9.755,3.398c-0.229-3.221-0.426-6.443-0.588-9.668c3.217-1.833,6.39-3.742,9.497-5.766
				c1.164-0.758,0.081-2.631-1.091-1.867c-2.792,1.819-5.643,3.534-8.524,5.197c-0.658-14.579-0.662-29.19-0.057-43.783
				c2.754,1.094,5.474,2.295,8.106,3.152c6.538,2.128,13.161,3.993,19.801,5.772c13.29,3.559,26.709,6.616,40.04,10.013
				c1.352,0.345,1.925-1.741,0.575-2.085c-13.332-3.398-26.74-6.488-40.04-10.013c-6.647-1.762-13.252-3.675-19.802-5.772
				c-2.824-0.904-5.681-2.155-8.571-3.279c0.086-1.895,0.177-3.789,0.283-5.683c1.712,0.372,3.42,0.767,5.126,1.168
				c5.779,1.358,11.544,2.779,17.307,4.204c9.282,2.296,18.599,4.518,27.822,7.044c1.347,0.369,1.918-1.717,0.575-2.085
				c-9.747-2.669-19.595-5.011-29.405-7.435c-5.799-1.433-11.602-2.855-17.421-4.21c-0.708-0.165-2.305-0.752-3.867-1.141
				c0.223-3.688,0.488-7.372,0.782-11.054c2.677,0.342,5.401,0.471,8.101,0.592c4.067,0.959,8.11,2.072,12.079,2.808
				c9.829,1.823,19.698,3.417,29.553,5.089c9.844,1.669,19.688,3.396,29.444,5.527c9.574,2.092,18.831,5.384,28.545,6.864
				c0.368,0.056,0.672-0.061,0.903-0.257C426.829,268.03,434.012,273.392,441.012,278.981z M313.822,213.892
				c-0.011,0-0.022-0.001-0.033-0.001c0.001-0.01,0.003-0.021,0.004-0.031C313.802,213.87,313.811,213.882,313.822,213.892z
				 M312.408,225.643c0.092-0.85,0.185-1.699,0.28-2.549c3.186,0.771,6.405,1.305,9.644,1.707c11.25,1.866,22.6,3.334,33.515,6.525
				C341.517,228.59,326.912,227.123,312.408,225.643z M351.521,232.727c-11.618-0.232-23.363-1.616-34.588-4.457
				C328.49,229.458,340.082,230.724,351.521,232.727z M355.316,226.459c0.726,0.331,1.449,0.667,2.173,1.002
				c-2.495-0.282-4.98-0.67-7.461-1.104C351.79,226.429,353.552,226.465,355.316,226.459z M314.948,211.094
				c0.005,0.073,0.017,0.141,0.035,0.21c-0.282,0-0.564-0.004-0.846-0.004c0.007-0.056,0.015-0.113,0.023-0.169
				C314.425,211.113,314.685,211.104,314.948,211.094z M311.105,239.22c0.285-3.35,0.599-6.698,0.941-10.042
				c16.008,4.657,33.328,6.255,49.908,5.62c3.61,0.801,7.197,1.7,10.758,2.713c-19.468,0.687-38.689-4.644-58.176-4.623
				c-1.191,0.001-1.512,1.896-0.287,2.124c25.816,4.813,53.592,3.789,78.085,14.151c-6.106,0.052-12.17-0.957-18.187-2.055
				c-7.646-1.395-15.184-2.475-22.919-3.235c-8.547-0.839-17.073-1.876-25.622-2.701c-2.036-0.196-4.115-0.288-6.203-0.38
				C316.645,240.142,313.878,239.57,311.105,239.22z M349.719,245.884c8.483,0.874,16.776,2.018,25.166,3.549
				c7.246,1.322,14.614,2.439,21.986,1.66c0.958-0.101,1.616-1.498,0.546-2.015c-9.907-4.79-20.391-7.516-31.105-9.365
				c4.129,0.107,8.266,0.002,12.418-0.435c0.489-0.051,0.819-0.356,0.966-0.721c12.465,6.699,24.589,14.037,36.296,21.987
				c-8.576-1.619-16.894-4.35-25.396-6.317c-9.72-2.249-19.614-3.853-29.444-5.527c-8.559-1.458-17.122-2.883-25.669-4.407
				C340.23,244.822,344.974,245.395,349.719,245.884z M366.556,233.646c0.022-0.447-0.22-0.924-0.747-1.142
				c-2.656-1.095-5.353-2.029-8.076-2.863c1.723,0.193,3.453,0.319,5.19,0.371c3.826,1.838,7.619,3.744,11.388,5.699
				C371.74,234.962,369.154,234.28,366.556,233.646z M376.441,512.197c-31.455-44.1-51.422-95.32-60.787-148.541
				c-0.221-1.256-0.408-2.517-0.617-3.775c34.132-13.806,66.777-31.256,97.167-52.045c11.422-7.814,22.873-16.024,33.331-25.189
				c1.216,1,2.435,1.995,3.638,3.01c27.831,23.46,52.163,50.917,72.007,81.345c-3.743,2.237-7.877,5.463-7.537,9.748
				c0.11,1.381,2.273,1.391,2.163,0c-0.266-3.351,3.071-6.029,6.502-8.028c2.609,4.051,5.115,8.167,7.563,12.32
				c-2.922,1.607-5.665,3.429-7.982,5.756c-0.984,0.989,0.544,2.518,1.529,1.529c2.13-2.14,4.884-3.755,7.682-5.199
				c5.497,9.468,10.592,19.176,15.212,29.126c7.408,15.955,13.594,32.408,18.699,49.19c-4.186,3.522-9.584,5.641-14.716,7.28
				c-2.067,0.66-4.191,1.23-6.331,1.756c-1.57-2.064-3.112-4.148-4.517-6.332c-0.752-1.168-2.624-0.085-1.867,1.092
				c1.281,1.992,2.681,3.897,4.106,5.783c-2.467,0.543-4.951,0.974-7.433,1.312c-0.381-0.436-0.747-0.868-1.098-1.265
				c-0.872-0.986-1.687-2.018-2.418-3.112c-0.251-0.375-0.472-0.768-0.68-1.168c-0.309-0.594-0.016-0.609-0.368-0.442
				c1.259-0.599,0.161-2.464-1.091-1.867c-2.414,1.15,0.111,5.019,2.987,8.201c-0.086,0.009-0.173,0.025-0.259,0.034
				c-7.541,0.767-29.39,1.122-22.879,14.625c2.046,4.244,4.366,9.257,7.312,13.685c-0.635,0.571-1.242,1.175-1.797,1.829
				c-0.896,1.057,0.626,2.594,1.529,1.529c0.476-0.562,0.99-1.077,1.523-1.567c2.287,3.104,4.939,5.79,8.091,7.54
				c-1.503,1.864-3.066,3.679-4.655,5.473c-0.921,1.04,0.603,2.575,1.529,1.529c1.752-1.98,3.471-3.989,5.118-6.054
				c2.01,0.804,4.206,1.239,6.625,1.179c8.557-0.213,16.865-4.242,24.714-7.235c5.204-1.984,11.219-2.87,16.291-5.373
				c1.649,8.112,3.054,16.275,4.253,24.469c-31.75,18.934-63.5,37.868-95.25,56.802c-7.724,4.606-15.447,9.212-23.171,13.818
				c-2.039-1.404-4.064-2.816-6.061-4.236C424.371,569.296,397.929,542.323,376.441,512.197z M464.938,597.928
				c31.712-18.911,63.424-37.823,95.136-56.734c6.547-3.904,13.094-7.808,19.64-11.712c0.192,1.424,0.365,2.852,0.544,4.278
				c-11.492,5.388-21.384,13.544-32.201,20.101c-1.19,0.722-0.104,2.592,1.091,1.867c10.563-6.404,20.246-14.329,31.396-19.716
				c0.362,2.996,0.694,5.995,0.999,8.997c-0.108,0.068-0.211,0.142-0.328,0.202c-0.464,0.235-0.602,0.642-0.529,1.027
				c-1.065,0.721-2.407,1.315-3.234,1.814c-1.591,0.959-3.211,1.867-4.834,2.77c-3.285,1.829-6.644,3.524-10.016,5.186
				c-6.691,3.297-13.516,6.318-20.313,9.386c-1.269,0.573-0.169,2.436,1.092,1.867c7.229-3.264,14.467-6.506,21.583-10.012
				c3.786-1.865,7.511-3.847,11.182-5.929c1.604-0.91,3.926-1.893,5.71-3.182c0.166,1.747,0.314,3.495,0.462,5.243
				c-17.27,10.299-34.54,20.598-51.81,30.896c-14.701,8.767-29.403,17.534-44.104,26.301
				C479.005,606.88,471.852,602.534,464.938,597.928z M474.018,675.339c2.226-1.551,4.859-2.831,6.925-4.026
				c3.824-2.211,7.81-4.136,11.84-5.94c7.874-3.526,16.096-6.279,24.392-8.618c1.34-0.378,0.77-2.464-0.575-2.085
				c-8.498,2.395-16.818,5.299-24.909,8.836c-4.049,1.77-7.99,3.774-11.84,5.94c-2.089,1.176-4.7,2.47-6.952,4.017
				c-1.376-2.306-2.751-4.613-4.127-6.92c18.091-9.042,36.822-16.59,56.331-22.042c1.341-0.375,0.771-2.461-0.575-2.085
				c-19.693,5.504-38.605,13.136-56.865,22.268c-2.555-4.284-5.109-8.567-7.664-12.851c2.004-0.693,3.986-1.49,5.961-2.142
				c4.809-1.586,9.622-3.164,14.433-4.744c9.146-3.003,18.288-6.018,27.41-9.097c1.314-0.443,0.75-2.532-0.575-2.085
				c-9.121,3.079-18.264,6.093-27.41,9.097c-4.331,1.422-8.662,2.843-12.991,4.269c-2.616,0.861-5.264,1.965-7.944,2.831
				c-1.592-2.671-3.185-5.341-4.778-8.012c29.273-17.457,58.546-34.914,87.819-52.371c27.243-16.246,54.486-32.493,81.73-48.739
				c10.735,18.001,21.47,36.003,32.205,54.004c-29.273,17.457-58.546,34.914-87.819,52.371
				c-27.243,16.246-54.486,32.492-81.73,48.739C482.214,689.083,478.116,682.211,474.018,675.339z M517.76,716.708
				c-2.975-2.079-5.951-4.158-8.926-6.238c2.091-0.912,4.285-1.547,6.178-1.815c1.376-0.195,0.788-2.278-0.575-2.085
				c-2.353,0.333-5.128,1.2-7.664,2.46c-1.19-0.832-2.381-1.664-3.571-2.495c3.115-2.325,8.306-3.407,11.09-4.367
				c1.31-0.452,0.747-2.541-0.575-2.085c-3.542,1.221-8.943,2.45-12.277,5.221c-1.611-1.126-3.222-2.252-4.834-3.378
				c6.068-3.619,12.136-7.237,18.204-10.856C515.793,699.616,516.776,708.162,517.76,716.708z"/>
		</g>
		<g id="XMLID_810_">
			<path id="XMLID_811_" d="M498.174,408.147c2.51-16.168-0.959-32.895-9.2-46.956c-0.087-0.149-0.199-0.278-0.298-0.417
				c-0.053-0.12-0.078-0.228-0.158-0.36c-18.78-30.952-59.277-44.969-93.46-33.755c-34.033,11.165-54.293,46.702-47.864,81.62
				c6.706,36.42,41.79,60.837,77.685,61.167C460.872,469.776,492.617,443.937,498.174,408.147z M476.388,430.117
				c-0.014-0.033-0.029-0.066-0.044-0.098c0.024,0.016,0.049,0.029,0.073,0.045C476.407,430.082,476.398,430.099,476.388,430.117z
				 M375.392,356.202c-0.437-0.179-0.874-0.357-1.311-0.536c0.258-0.336,0.339-0.807,0.092-1.198
				c-0.061-0.096-0.114-0.194-0.173-0.291c0.426-0.535,0.871-1.055,1.313-1.578c0.378-0.044,0.759-0.076,1.148-0.071
				c0.81,0.01,1.361-0.929,0.934-1.627c-0.082-0.134-0.153-0.27-0.23-0.404c0.41-0.447,0.814-0.9,1.236-1.337
				c0.775,0.033,1.549,0.091,2.322,0.248c0.967,0.196,1.95-1.056,1.052-1.807c-0.026-0.022-0.052-0.042-0.078-0.064
				c0.915,0.086,1.827,0.212,2.739,0.377C381.119,350.362,378.092,353.142,375.392,356.202z M371.519,361.085
				c-0.285-0.85-0.502-1.693-0.729-2.526c0.549-0.81,1.111-1.61,1.694-2.398c-0.146,0.524,0.03,1.183,0.669,1.446
				c0.259,0.106,0.517,0.211,0.776,0.317C373.09,358.951,372.287,360.005,371.519,361.085z M370.485,362.598
				c-0.524,0.787-1.027,1.587-1.514,2.398c-0.384-0.618-0.704-1.266-0.993-1.93c0.088-0.152,0.171-0.306,0.259-0.458
				C368.985,362.57,369.732,362.531,370.485,362.598z M364.109,375.068c-0.397-0.425-0.783-0.86-1.169-1.296
				c0.01-0.028,0.02-0.056,0.03-0.084c0.615-0.164,1.231-0.322,1.861-0.44C364.583,373.852,364.338,374.456,364.109,375.068z
				 M358.852,391.258c0.892-0.064,1.422-1.036,0.75-1.811c-0.164-0.19-0.313-0.39-0.467-0.587c0.086-0.615,0.184-1.227,0.285-1.839
				c0.555-0.248,0.896-1.005,0.516-1.538c-0.066-0.093-0.124-0.189-0.189-0.282c0.052-0.271,0.109-0.542,0.164-0.813
				c0.492,0.032,0.99,0.098,1.493,0.193c-0.141,0.705-0.286,1.409-0.402,2.12c-0.423,2.591-0.635,5.188-0.69,7.778
				c-0.557-0.531-1.085-1.086-1.62-1.634C358.736,392.314,358.797,391.787,358.852,391.258z M359.071,400.194
				c0.494,0.184,0.98,0.386,1.462,0.602c0.027,0.303,0.055,0.606,0.087,0.909C360.09,401.211,359.571,400.711,359.071,400.194z
				 M359.753,396.379c0.203-0.026,0.387-0.113,0.533-0.252c0.002,0.273,0.015,0.544,0.022,0.817
				C360.121,396.757,359.944,396.561,359.753,396.379z M360.461,381.925c0.093,0.128,0.2,0.249,0.285,0.382
				c-0.123-0.012-0.247-0.027-0.371-0.037C360.402,382.155,360.433,382.041,360.461,381.925z M362.693,379.344
				c-0.406-0.433-0.794-0.881-1.162-1.346c0.039-0.13,0.076-0.26,0.116-0.39c0.501,0.061,1,0.136,1.497,0.225
				C362.985,378.334,362.841,378.84,362.693,379.344z M365.587,371.448c-0.014-0.018-0.023-0.04-0.039-0.057
				c-0.389-0.437-0.742-0.893-1.087-1.352c0.164-0.375,0.336-0.747,0.506-1.119c0.285-0.015,0.571-0.031,0.858-0.027
				c0.684,0.009,1.255-0.7,1.043-1.369c-0.039-0.13-0.089-0.255-0.13-0.385c0.337,0.002,0.677-0.011,1.016-0.021
				C366.98,368.534,366.248,369.973,365.587,371.448z M366.947,391.632c0.471-6.196,1.983-12.167,4.353-17.733
				c1.695,0.79,3.586,1.41,4.631,1.921c6.888,3.368,13.634,6.942,20.646,10.069c15.936,7.107,32.349,13.077,48.402,19.906
				c1.267,0.539,2.371-1.323,1.091-1.867c-14.718-6.261-29.711-11.851-44.408-18.16c-7.574-3.251-15.035-6.757-22.324-10.607
				c-1.553-0.82-3.118-1.598-4.696-2.368c-0.369-0.18-1.376-0.638-2.355-1.08c1.955-4.107,4.387-7.967,7.227-11.504
				c22.82,9.338,45.68,18.583,68.348,28.285c1.267,0.542,2.37-1.32,1.091-1.867c-22.553-9.653-45.292-18.859-67.996-28.148
				c2.762-3.184,5.863-6.074,9.249-8.609c1.13,1.515,3.748,2.533,5.066,3.217c4.951,2.57,10.111,4.758,15.237,6.948
				c9.117,3.896,18.356,7.485,27.519,11.267c1.289,0.532,1.845-1.561,0.575-2.085c-8.045-3.32-16.154-6.484-24.179-9.853
				c-4.953-2.079-9.888-4.212-14.745-6.51c-1.736-0.822-3.457-1.68-5.14-2.608c-0.602-0.332-1.19-0.688-1.767-1.061
				c-0.235-0.152-0.537-0.48-0.738-0.629c5.155-3.56,10.901-6.322,17.063-8.062c23.659-6.682,48.233,4.787,60.759,25.363
				c9.02,15.444,10.614,33.755,4.473,50.544c-6.276,17.159-21.098,30.382-38.582,35.32c-17.48,4.937-36.005,0-49.554-11.814
				C372.473,427.944,365.578,409.634,366.947,391.632z M483.294,414.186c-0.45-0.445-0.876-0.91-1.279-1.396
				c0.089-0.32,0.163-0.644,0.247-0.966c0.728-0.091,1.122-0.979,0.762-1.61c-0.084-0.147-0.17-0.291-0.254-0.437
				c0.053-0.234,0.096-0.47,0.146-0.705c0.195,0.016,0.389,0.033,0.585,0.048c0.67,0.054,1.142-0.633,1.06-1.246
				c0.087,0.022,0.173,0.044,0.261,0.065C484.409,410.045,483.899,412.128,483.294,414.186z M477.531,428.083
				c-0.42-0.526-0.841-1.051-1.284-1.548c0.227-0.395,0.452-0.79,0.669-1.189c0.147,0.098,0.299,0.187,0.442,0.293
				c0.081,0.06,0.165,0.093,0.249,0.122c0.225,0.307,0.448,0.617,0.663,0.939C478.03,427.164,477.783,427.624,477.531,428.083z
				 M481.298,372.881c-0.031,0.002-0.061,0.004-0.092,0.006c-1.093,0.074-1.45,1.399-0.546,2.015
				c1.095,0.747,2.216,1.454,3.326,2.177c0.001,0.005,0.003,0.01,0.004,0.016c-0.762,0.077-1.524,0.14-2.296,0.122
				c-0.18-0.004-0.331,0.041-0.467,0.105c-0.727-2.199-1.583-4.368-2.577-6.496C479.643,371.405,480.496,372.109,481.298,372.881z
				 M485.314,403.893c-0.869-0.072-1.399,1.116-0.848,1.744c-0.294-0.078-0.585-0.169-0.878-0.254
				c0.166-1.104,0.309-2.212,0.414-3.325c0.018,0.018,0.025,0.038,0.044,0.056c0.532,0.485,1.014,1.014,1.488,1.548
				c-0.011,0.082-0.025,0.163-0.036,0.245C485.436,403.904,485.377,403.898,485.314,403.893z M486.104,391.937
				c-0.632-0.754-1.187-1.486-1.799-2.165c0.785-0.194,1.237-1.157,0.573-1.804c-0.567-0.553-1.023-1.156-1.455-1.774
				c-0.017-0.101-0.033-0.203-0.051-0.305c0.244,0.037,0.489,0.075,0.749,0.119c0.737,0.124,1.634-0.478,1.33-1.33
				c-0.313-0.876-0.658-1.612-1.096-2.34c0.238-0.079,0.469-0.178,0.702-0.271C485.643,385.345,485.99,388.641,486.104,391.937z
				 M484.28,396.127c0.082,0.105,0.165,0.209,0.247,0.314c-0.085,0.025-0.168,0.056-0.254,0.08
				C484.274,396.39,484.28,396.258,484.28,396.127z M484.181,399.58c0.215,0.24,0.425,0.483,0.636,0.725
				c-0.263,0.02-0.51,0.121-0.704,0.285C484.137,400.253,484.163,399.917,484.181,399.58z M485.497,394.205
				c0.065-0.003,0.129-0.007,0.193-0.01c0.176-0.006,0.326-0.056,0.463-0.123c0.001,0.317-0.007,0.633-0.01,0.95
				C485.927,394.75,485.711,394.478,485.497,394.205z M482.863,380.555c-0.165,0.047-0.332,0.094-0.493,0.145
				c-0.043,0.014-0.078,0.051-0.12,0.071c-0.082-0.309-0.159-0.619-0.246-0.927C482.297,380.072,482.581,380.312,482.863,380.555z
				 M485.904,398.272c0.045-0.015,0.091-0.028,0.135-0.043c-0.003,0.062-0.007,0.124-0.01,0.186
				C485.988,398.367,485.946,398.319,485.904,398.272z M480.319,367.608c0.164-0.047,0.291-0.14,0.396-0.254
				c0.094,0.224,0.2,0.446,0.292,0.671C480.776,367.887,480.548,367.747,480.319,367.608z M476.089,365.326
				c-0.135-0.012-0.259,0.004-0.371,0.041c-0.256-0.409-0.519-0.811-0.783-1.212c0.472,0.407,0.953,0.805,1.448,1.184
				C476.285,365.332,476.187,365.334,476.089,365.326z M478.13,368.814c-0.12,0.106-0.206,0.243-0.271,0.391
				c-0.133-0.263-0.261-0.528-0.398-0.79C477.685,368.547,477.908,368.68,478.13,368.814z M474.885,432.523
				c-0.101-0.178-0.203-0.356-0.303-0.534c0.165,0.076,0.329,0.15,0.493,0.231C475.01,432.32,474.95,432.423,474.885,432.523z
				 M480.812,421.259c-0.344-0.579-0.655-1.175-0.954-1.777c0.26,0.111,0.526,0.224,0.819,0.35c0.228,0.099,0.453,0.111,0.664,0.08
				C481.165,420.361,480.996,420.813,480.812,421.259z M481.987,418.134c-0.458-0.494-0.825-1.032-1.172-1.582
				c0.045-0.127,0.092-0.253,0.136-0.38c0.547,0.057,1.095,0.13,1.647,0.255c-0.192,0.58-0.385,1.16-0.592,1.736
				C481.998,418.154,481.996,418.144,481.987,418.134z M478.541,362.669c0.412,0.808,0.818,1.617,1.196,2.435
				c-1.375-0.945-2.692-1.929-3.908-3.04c0.848,0.102,1.686,0.302,2.567,0.589C478.448,362.67,478.491,362.66,478.541,362.669z
				 M437.634,330.182c16.395,3.277,30.109,14.82,38.825,28.701c0.091,0.15,0.182,0.3,0.273,0.45c0.144,0.248,0.275,0.5,0.415,0.749
				c-1.256-0.267-2.459-0.348-3.897-0.179c-0.428,0.05-0.749,0.281-0.923,0.583c-19.596-25.35-57.091-32.284-84.606-14.84
				c-0.29,0.184-0.565,0.385-0.851,0.574c-0.058-0.021-0.099-0.056-0.167-0.07c-1.472-0.289-2.914-0.565-4.367-0.731
				c1.974-1.744,4.046-3.396,6.238-4.917C402.779,330.649,420.692,326.796,437.634,330.182z M456.27,451.71
				c-14.205,9.854-32.118,13.707-49.06,10.321c-16.394-3.277-30.109-14.82-38.824-28.701c-5.108-8.135-8.143-17.018-9.332-26.059
				c0.884-0.171,1.214-1.377,0.351-1.978c-0.221-0.154-0.423-0.318-0.635-0.476c-0.027-0.288-0.046-0.576-0.069-0.864
				c0.741,0.267,1.481,0.543,2.222,0.831c0.039,0.015,0.074,0.01,0.112,0.02c1.745,10.812,6.497,21.093,13.567,29.621
				c19.785,23.866,56.714,28.505,82.522,12.143c3.508-2.224,6.687-4.779,9.542-7.591c0.625,0.247,1.521-0.069,1.565-0.957
				c0.012-0.251,0.031-0.478,0.05-0.688c0.08-0.085,0.156-0.173,0.236-0.259c0.681,0.466,1.365,0.929,2.058,1.377
				C466.543,443.413,461.767,447.897,456.27,451.71z"/>
		</g>
		<g id="XMLID_808_">
			<path id="XMLID_809_" d="M405.591,414.553c17.859,7.285,37.125,11.547,53.805,21.516c1.2,0.717,2.287-1.153,1.091-1.867
				c-16.842-10.066-36.289-14.379-54.321-21.734C404.874,411.941,404.317,414.034,405.591,414.553z"/>
		</g>
		<g id="XMLID_806_">
			<path id="XMLID_807_" d="M451.578,442.022c-13.105-2.603-24.767-9.704-36.505-15.75c-1.238-0.637-2.332,1.229-1.092,1.867
				c11.892,6.125,23.74,13.33,37.021,15.967C452.365,444.378,452.945,442.294,451.578,442.022z"/>
		</g>
		<g id="XMLID_804_">
			<path id="XMLID_805_" d="M332.195,533.649c-3.593-5.192-6.908-10.57-9.894-16.134c-1.482-2.761-2.8-5.6-4.089-8.455
				c-1.398-3.097-3.397-6.684-2.839-10.204c0.216-1.364-1.867-1.949-2.085-0.575c-0.791,4.991,2.139,9.852,4.13,14.243
				c2.798,6.168,6.237,12.032,9.901,17.719c7.585,11.775,16.538,22.61,25.003,33.747c0.832,1.095,2.712,0.019,1.867-1.091
				C346.807,553.187,339.142,543.687,332.195,533.649z"/>
		</g>
		<g id="XMLID_802_">
			<path id="XMLID_803_" d="M339.053,519.649c-0.667-1.225-2.534-0.134-1.867,1.092c9.864,18.126,21.705,35.206,37.653,48.515
				c1.063,0.887,2.601-0.635,1.529-1.529C360.552,554.527,348.835,537.625,339.053,519.649z"/>
		</g>
		<g id="XMLID_800_">
			<path id="XMLID_801_" d="M277.856,205.587c-1.352-0.348-1.925,1.738-0.575,2.085c2.139,0.551-3.728,27.176-3.677,30.674
				c0.02,1.393,2.182,1.395,2.163,0c-0.095-6.661,2.014-13.617,2.984-20.184C279.085,215.902,281.466,206.516,277.856,205.587z"/>
		</g>
		<g id="XMLID_798_">
			<path id="XMLID_799_" d="M286.579,210.954c0.298,11.078-1.933,21.967-3.566,32.871c-0.204,1.363,1.879,1.95,2.085,0.575
				c1.66-11.09,3.946-22.179,3.643-33.446C288.704,209.563,286.542,209.559,286.579,210.954z"/>
		</g>
		<g id="XMLID_796_">
			<path id="XMLID_797_" d="M329.181,201.905c14.645,3.972,28.244,10.857,42.53,15.858c1.32,0.462,1.882-1.628,0.575-2.085
				c-14.286-5.001-27.885-11.887-42.529-15.858C328.408,199.454,327.837,201.541,329.181,201.905z"/>
		</g>
		<g id="XMLID_794_">
			<path id="XMLID_795_" d="M350.548,200.355c14.526,8.753,30.894,13.624,46.134,20.904c1.252,0.598,2.349-1.266,1.092-1.867
				c-15.24-7.281-31.609-12.152-46.134-20.904C350.442,197.766,349.356,199.636,350.548,200.355z"/>
		</g>
		<g id="XMLID_792_">
			<path id="XMLID_793_" d="M685.203,628.321c-0.079-14.209-2.057-28.322-2.163-42.53c-0.01-1.394-2.173-1.395-2.162,0
				c0.106,14.208,2.083,28.321,2.162,42.53C683.049,629.715,685.211,629.716,685.203,628.321z"/>
		</g>
		<g id="XMLID_790_">
			<path id="XMLID_791_" d="M692.412,621.833c-0.272-10.105-0.238-20.224-1.442-30.275c-0.164-1.367-2.328-1.383-2.162,0
				c1.204,10.051,1.17,20.171,1.442,30.275C690.287,623.225,692.449,623.229,692.412,621.833z"/>
		</g>
		<g id="XMLID_788_">
			<path id="XMLID_789_" d="M467.324,711.43c9.068,5.707,18.171,11.484,26.671,18.021c1.106,0.85,2.18-1.03,1.091-1.867
				c-8.5-6.536-17.603-12.314-26.671-18.021C467.232,708.818,466.148,710.69,467.324,711.43z"/>
		</g>
		<g id="XMLID_786_">
			<path id="XMLID_787_" d="M492.329,740.652c0.778,0.951,2.389-0.302,1.698-1.31c-0.715-1.046-1.489-1.983-2.326-2.938
				c-0.176-0.2-0.373-0.283-0.571-0.317c-6.562-6.691-14.897-11.323-22.714-16.432c-1.171-0.765-2.254,1.108-1.091,1.867
				C476.124,727.273,485.573,732.39,492.329,740.652z"/>
		</g>
		<g id="XMLID_779_">
			<path id="XMLID_780_" d="M800.287,690.875c-9.582-3.753-19.638-6.439-29.482-9.398c-13.034-3.918-26.083-7.8-38.995-12.106
				c-3.664-1.222-7.312-2.492-10.935-3.83c-1.6-0.591-3.19-1.205-4.775-1.836c-0.158-0.063-1.252-0.514-1.504-0.614
				c-0.542-0.232-1.082-0.468-1.62-0.709c-1.882-0.842-3.743-1.761-5.499-2.848c-1.211-5.364-10.495-6.736-12.762-0.092
				c-3.044,8.921,10.4,13.646,16.29,16.104c11.397,4.755,23.301,8.359,35.088,12.001c12.421,3.838,24.908,7.461,37.32,11.329
				c4.259,1.327,8.521,2.672,12.701,4.234c0.214,0.08,0.759,0.3,1.169,0.465c0.616,0.279,1.223,0.573,1.827,0.88
				c3.122,1.591,6.173,3.362,8.345,5.386c0.232,0.216,0.435,0.458,0.648,0.692c-0.048,0.029-0.098,0.059-0.191,0.125
				c-4.148,2.91-8.339,3.915-13.872,5.43c-11.336,3.105-22.974,5.044-34.386,7.855c-14.301,3.522-28.985,5.449-42.798,10.78
				c-12.686,4.896-27.16,14.523-22.111,30.104c1.669,5.151,4.215,10.016,6.428,14.944c0.487,1.086,0.004-0.122,0.481,1.275
				c0.641,1.876,1.179,3.794,1.746,5.694c1.279,4.289,2.451,8.609,3.616,12.93c3.184,11.814,6.51,23.586,9.851,35.354
				c-24.751-16.914-47.479-42.768-79.258-38.401c-9.821,1.35-16.345,9.73-23.003,16.148c-8.12,7.827-16.141,15.719-24.104,23.708
				c-7.89,7.916-15.939,15.822-24.863,22.581c-1.884,1.427-3.683,2.816-5.326,4.517c-0.553,0.573-1.337,1.628-2.071,2.219
				c-0.098-0.295-0.556-1.355-0.619-1.554c-3.879-12.251-1.742-27.028-1.746-40.114c-0.004-10.447-0.231-20.888,0.249-31.329
				c0.443-9.637,1.212-20.167,5.233-29.082c1.454-3.224,0.959-6.951-2.328-8.876c-2.807-1.644-7.422-0.897-8.876,2.327
				c-7.698,17.07-7.401,36.926-7.322,55.293c0.056,13.16-0.684,26.441,0.02,39.584c0.365,6.803,1.088,13.785,3.995,20.019
				c3.813,8.176,13.572,8.414,19.993,3.341c1.488-1.176,2.699-2.744,4.053-4.067c1.715-1.678,3.845-3.016,5.727-4.498
				c4.592-3.615,8.933-7.545,13.19-11.545c8.36-7.855,16.255-16.188,24.413-24.249c4.503-4.45,9.235-8.658,13.647-13.2
				c3.914-4.03,7.503-7.603,13.189-8.712c9.352-1.823,19.886,3.206,27.781,7.58c19.557,10.837,35.178,28.076,55.41,37.696
				c4.929,2.344,11.186-1.473,9.53-7.326c-3.44-12.155-7.002-24.279-10.374-36.453c-3.124-11.276-5.445-23.056-9.591-34.013
				c-1.264-3.341-2.896-6.551-4.37-9.801c-0.687-1.515-1.316-3.042-1.893-4.602c-0.298-0.804-0.547-1.623-0.79-2.444
				c-0.112-0.397-0.203-0.8-0.291-1.203c0.021-0.239,0.051-0.779,0.133-1.057c0.038-0.13,0.067-0.231,0.09-0.318
				c0.055-0.091,0.133-0.235,0.242-0.451c0.785-1.547,0.706-1.303,1.672-2.36c1.984-2.171,4.177-3.473,7.086-5.025
				c12.811-6.833,28.29-8.743,42.319-11.749c11.431-2.449,22.908-4.994,34.285-7.693c10.056-2.385,24.251-5.252,28.686-15.861
				C825.743,702.661,808.229,693.985,800.287,690.875z M558.71,866.674c-0.111-0.167-0.221-0.334-0.318-0.509
				C558.529,866.269,558.592,866.457,558.71,866.674z M558.212,865.816l-0.003,0.002c-0.053-0.101-0.108-0.202-0.16-0.303
				C558.126,865.664,558.177,865.757,558.212,865.816z M808.591,710.011c-0.006,0.007-0.012,0.015-0.018,0.022
				C808.591,709.854,808.602,709.875,808.591,710.011z M808.608,711.222L808.608,711.222c0.007,0.023,0.009,0.037,0.017,0.063
				C808.618,711.259,808.615,711.245,808.608,711.222z"/>
		</g>
		<g id="XMLID_773_">
			<path id="XMLID_774_" d="M726.788,708.731c1.008-0.077,1.558-1.47,0.546-2.015c-21.684-11.663-44.799-24.796-69.558-28.172
				c-1.363-0.186-1.951,1.898-0.575,2.085c23.348,3.184,45.138,15.053,65.72,26.163c-10.159,0.447-20.429-0.256-30.58-0.05
				c-9.788,0.198-20.987,0.22-30.593,3.493c-16.485-5.037-32.32-12.531-49.754-13.653c-1.393-0.09-1.385,2.074,0,2.163
				c16.295,1.049,31.199,7.759,46.561,12.726c-0.564,0.248-1.125,0.502-1.674,0.779c-3.417,1.722-5.237,4.352-6.087,7.395
				c-13.859-5.459-27.96-11.425-42.872-11.348c-1.394,0.007-1.395,2.17,0,2.163c14.728-0.076,28.714,5.89,42.428,11.311
				c-0.499,3.742,0.168,7.903,1.097,11.745c-6.455-2.468-12.884-5.01-19.43-7.219c-10.946-3.694-23.186-7.328-34.827-5.268
				c-1.372,0.243-0.789,2.327,0.575,2.085c11.61-2.055,23.885,1.964,34.771,5.637c6.593,2.225,13.06,4.808,19.561,7.294
				c0.182,0.668,0.365,1.324,0.545,1.954c0.601,2.105,1.302,4.196,2.053,6.282c-0.057,0.343,0.048,0.701,0.352,0.976
				c0.089,0.242,0.181,0.484,0.272,0.726c-25.867-5.549-52.551-7.39-77.703-15.988c-1.323-0.452-1.886,1.637-0.575,2.085
				c25.638,8.764,52.866,10.519,79.199,16.324c3.151,8.131,6.734,16.227,8.372,24.66c-7.458-4.163-13.451-10.292-20.508-15.078
				c-1.512-1.025-3.062-1.867-4.64-2.545c2.716,0.378,5.433,0.751,8.152,1.106c1.38,0.18,1.363-1.985,0-2.163
				c-25.749-3.355-51.37-7.766-76.591-13.977c0.647-3.412,1.656-6.663,3.219-9.512c0.671-1.223-1.197-2.314-1.867-1.091
				c-1.669,3.042-2.746,6.489-3.434,10.101c-0.083-0.021-0.166-0.039-0.249-0.06c-1.353-0.34-1.927,1.746-0.575,2.085
				c0.154,0.039,0.31,0.073,0.464,0.112c-0.988,6.715-0.778,13.843-0.501,19.974c0.139,3.07,0.414,6.155,0.865,9.211
				c-2.65-0.608-4.672-1.093-5.407-1.237c-1.362-0.266-1.943,1.818-0.575,2.085c2.128,0.416,4.246,0.872,6.364,1.335
				c0.376,2.108,0.815,4.203,1.402,6.256c1.096,3.834,2.818,8.105,6.297,10.362c0.383,0.249,1.007,0.183,1.31-0.169
				c4.054-4.697,8.591-8.972,13.32-13.003c1.642-0.25,2.918-0.923,3.127-2.391c0.01-0.069-0.009-0.126-0.01-0.191
				c0.654-0.536,1.298-1.085,1.956-1.613c1.187-0.953,2.398-1.898,3.62-2.837c3.571,0.383,7.182,0.474,10.843,0.145
				c1.377-0.124,1.389-2.288,0-2.162c-2.778,0.25-5.525,0.249-8.248,0.065c3.444-2.535,7.025-4.927,10.754-6.999
				c0.388,0.075,0.776,0.148,1.164,0.224c3.208,0.623,7.344,2.359,10.608,1.728c0.51-0.099,0.735-0.587,0.794-1.043
				c0.007-0.057,0.015-0.113,0.022-0.17c0.05-0.389-0.25-0.729-0.535-0.934c-0.754-0.54-1.647-0.829-2.505-1.163
				c-0.78-0.304-1.282,0.327-1.292,0.988c-1.284-0.291-2.595-0.715-3.583-0.913c-0.54-0.109-1.082-0.211-1.623-0.317
				c1.313-0.65,2.639-1.27,3.988-1.823c8.591-3.517,16.416-1.751,23.781,3.445c7.104,5.013,13.087,11.247,20.989,15.113
				c0.909,0.445,1.73-0.274,1.589-1.221c-1.315-8.835-5.062-17.362-8.37-25.824c0.349,0.081,0.7,0.153,1.049,0.236
				c0.904,0.213,1.722-0.746,1.221-1.588c-1.066-1.792-2.533-2.654-4.18-3.732c-0.345-0.966-0.681-1.931-0.995-2.897
				c-0.428-1.315-0.847-2.648-1.24-3.993c3.942,1.485,7.902,2.917,11.92,4.184c1.333,0.421,1.9-1.667,0.575-2.085
				c-4.449-1.403-8.834-2.993-13.198-4.642c-0.931-3.608-1.577-7.293-1.544-10.993c0.003-0.307,0.047-0.582,0.069-0.874
				c2.831,1.107,5.652,2.18,8.465,3.153c1.321,0.457,1.884-1.632,0.575-2.085c-2.888-0.999-5.782-2.099-8.684-3.231
				c0.939-3.444,3.465-5.665,7.146-7.182c0.634-0.261,1.277-0.503,1.926-0.733c4.974,1.508,10.007,2.792,15.166,3.578
				c1.364,0.208,1.95-1.876,0.575-2.085c-4.064-0.62-8.049-1.541-11.99-2.634c9.477-2.484,20.049-2.358,29.541-2.499
				C705.639,708.7,716.292,709.533,726.788,708.731z M577.439,787.624c-2.879-2.351-4.105-6.553-5.021-9.966
				c-0.333-1.24-0.606-2.496-0.849-3.758c3.897,0.853,7.797,1.691,11.745,2.305c0.936,0.146,2.898,0.544,4.939,0.706
				C584.433,780.268,580.784,783.824,577.439,787.624z M597.208,769.554c-2.184,1.686-4.344,3.427-6.468,5.216
				c-3.914,0.289-12.884-1.539-19.525-3.028c-0.504-3.226-0.794-6.489-0.959-9.739c8.911,2.856,17.887,6.026,27.111,7.429
				C597.315,769.473,597.261,769.514,597.208,769.554z M613.257,758.59c-0.249-0.048-0.497-0.098-0.746-0.146
				c-3.881-0.748-7.765-1.479-11.644-2.237c-8.296-1.62-16.547-3.446-24.676-5.773c-1.343-0.384-1.913,1.702-0.575,2.085
				c8.607,2.463,17.346,4.341,26.128,6.056c2.883,0.563,5.768,1.111,8.653,1.662c-3.68,2.236-7.211,4.765-10.598,7.333
				c-10.015-1.196-19.713-4.698-29.346-7.776c-0.111-0.035-0.208-0.03-0.308-0.033c-0.221-5.359-0.308-11.447,0.524-17.217
				c18.593,4.57,37.399,8.161,56.316,11.074c-2.006,0.24-4.032,0.724-6.069,1.455C618.286,756.018,615.74,757.231,613.257,758.59z"
				/>
		</g>
		<g id="XMLID_771_">
			<path id="XMLID_772_" d="M709.89,705.152c1.363,0.214,1.949-1.869,0.575-2.085c-27.115-4.256-52.396-15.506-79.013-21.784
				c-1.356-0.32-1.932,1.765-0.575,2.085C657.494,689.646,682.774,700.895,709.89,705.152z"/>
		</g>
		<g id="XMLID_769_">
			<path id="XMLID_770_" d="M859.741,696.594c-38.059-18.252-77.463-33.589-115.083-52.772c-1.24-0.632-2.334,1.234-1.091,1.867
				c37.62,19.183,77.024,34.52,115.083,52.772C859.9,699.061,860.998,697.197,859.741,696.594z"/>
		</g>
		<g id="XMLID_767_">
			<path id="XMLID_768_" d="M870.072,688.988c-33.221-13.565-64.435-31.471-97.425-45.551c-1.268-0.541-2.371,1.321-1.091,1.867
				c33.162,14.154,64.545,32.133,97.941,45.769C870.789,691.601,871.345,689.508,870.072,688.988z"/>
		</g>
		<g id="XMLID_765_">
			<path id="XMLID_766_" d="M507.599,830.423c-13.872,32.081-19.364,67.228-25.672,101.377c-0.252,1.363,1.832,1.945,2.085,0.575
				c6.269-33.937,11.667-68.977,25.454-100.861C510.013,830.249,508.151,829.146,507.599,830.423z"/>
		</g>
		<g id="XMLID_763_">
			<path id="XMLID_764_" d="M486.471,833.016c-5.849,9.038-8.027,20.082-9.645,30.56c-1.738,11.254-2.384,22.63-3.508,33.952
				c-0.138,1.388,2.026,1.374,2.163,0c1.068-10.756,1.737-21.545,3.264-32.252c1.517-10.637,3.667-22.01,9.594-31.168
				C489.098,832.933,487.226,831.85,486.471,833.016z"/>
		</g>
		<g id="XMLID_761_">
			<path id="XMLID_762_" d="M608.354,869.355c1.073-0.892-0.465-2.413-1.529-1.529c-11.534,9.583-20.683,21.515-29.637,33.446
				c-0.838,1.117,1.041,2.192,1.867,1.091C587.901,890.577,596.961,878.821,608.354,869.355z"/>
		</g>
		<g id="XMLID_759_">
			<path id="XMLID_760_" d="M609.074,890.963c-12.21,10.866-20.237,25.383-29.491,38.642c-0.8,1.147,1.075,2.226,1.867,1.091
				c9.153-13.114,17.079-27.458,29.154-38.204C611.647,891.563,610.112,890.039,609.074,890.963z"/>
		</g>
		<g id="XMLID_757_">
			<path id="XMLID_758_" d="M793.886,763.88c-17.825-0.438-36.603,1.575-53.828-4.043c-1.33-0.434-1.895,1.655-0.575,2.085
				c17.418,5.681,36.384,3.678,54.403,4.12C795.281,766.077,795.278,763.914,793.886,763.88z"/>
		</g>
		<g id="XMLID_755_">
			<path id="XMLID_756_" d="M806.142,758.736c-23.67-2.357-47.624-1.59-71.082-5.959c-1.363-0.254-1.945,1.83-0.575,2.085
				c23.652,4.406,47.792,3.66,71.657,6.036C807.529,761.037,807.516,758.873,806.142,758.736z"/>
		</g>
		<g id="XMLID_753_">
			<path id="XMLID_754_" d="M731.155,884.489c-22.808-8.934-43.587-22.247-63.947-35.69c-1.167-0.771-2.249,1.103-1.091,1.867
				c20.529,13.555,41.468,26.901,64.464,35.908C731.88,887.084,732.438,884.992,731.155,884.489z"/>
		</g>
		<g id="XMLID_751_">
			<path id="XMLID_752_" d="M750.531,881.662c-20.54-9.344-41.807-19.036-59.134-33.766c-1.056-0.898-2.593,0.625-1.529,1.529
				c17.487,14.865,38.841,24.673,59.572,34.104C750.699,884.102,751.799,882.239,750.531,881.662z"/>
		</g>
		<g id="XMLID_749_">
			<path id="XMLID_750_" d="M740.548,797.539c-0.762-1.16-2.635-0.078-1.867,1.092c10.057,15.317,11.679,34.661,15.76,52.097
				c0.318,1.357,2.403,0.782,2.085-0.575C752.398,832.521,750.72,813.032,740.548,797.539z"/>
		</g>
		<g id="XMLID_747_">
			<path id="XMLID_748_" d="M762.128,793.195c-0.187-1.377-2.27-0.788-2.085,0.575c2.032,14.989,6.453,29.462,10.038,44.119
				c0.331,1.354,2.417,0.78,2.085-0.575C768.58,822.657,764.16,808.184,762.128,793.195z"/>
		</g>
	</g>
</g>
</svg>
